<?xml version="1.0" encoding="UTF-8"?>
<svg xmlns="http://www.w3.org/2000/svg" viewBox="0 0 1500 1820" width="1500" height="1820" font-family="JetBrains Mono, Consolas, monospace">

  <!-- 暗色背景 -->
  <rect width="1500" height="1820" fill="#0a0c10"/>

  <!-- 进程外框(扩高包含 tcache + arena 全部) -->
  <rect x="20" y="20" width="1460" height="1780" fill="none" stroke="#3a3a4a" stroke-width="2" stroke-dasharray="8,4" rx="6"/>
  <text x="40" y="48" fill="#888" font-size="13" font-weight="bold">进程(per-process,内核给的边界)</text>
  <text x="40" y="65" fill="#666" font-size="10" font-style="italic">↑ ptmalloc2 实例服务于此进程内所有线程;不同进程互不见</text>

  <!-- ============================================================
       thread tcache 详细区(2017+ 现代演化,thread-local 无锁,跟 arena 平行)
       ============================================================ -->
  <rect x="40" y="80" width="1420" height="195" fill="#0d1815" stroke="#40c0c0" stroke-width="1.5" rx="4"/>
  <text x="60" y="106" fill="#88ffff" font-size="14" font-weight="bold">① thread tcache 区(per-thread,thread-local,完全无锁;glibc 2.26+ 引入)</text>
  <text x="60" y="125" fill="#aaa" font-size="11" font-style="italic">↑ tcache 跟下面 arena 平行存在(thread-local 维度);90%+ alloc/free 命中 tcache 后完全不进 arena</text>

  <!-- thread T1 tcache 详细 -->
  <rect x="60" y="140" width="1100" height="120" fill="#0a1413" stroke="#40c0c0" stroke-width="1"/>
  <text x="75" y="160" fill="#88ffff" font-size="12" font-weight="bold">thread T1 tcache —— `__thread tcache_perthread_struct *tcache;`</text>

  <!-- entries[64] 64 桶横排展示 -->
  <text x="75" y="184" fill="#88ffff" font-size="11">entries[64]:</text>

  <g transform="translate(180,170)">
    <!-- 桶 0 -->
    <rect width="42" height="20" fill="#1e5f5f" stroke="#40c0c0"/>
    <text x="21" y="14" fill="#88ffff" font-size="10" text-anchor="middle">[0]</text>
    <text x="21" y="32" fill="#888" font-size="9" text-anchor="middle">16B</text>
    <!-- 桶 0 chain (3 chunks LIFO) -->
    <rect x="3" y="42" width="36" height="14" fill="#1e3a5f" stroke="#4080c0"/>
    <text x="21" y="53" fill="#88c0ff" font-size="9" text-anchor="middle">c0a</text>
    <line x1="21" y1="56" x2="21" y2="62" stroke="#4080c0"/>
    <rect x="3" y="62" width="36" height="14" fill="#1e3a5f" stroke="#4080c0"/>
    <text x="21" y="73" fill="#88c0ff" font-size="9" text-anchor="middle">c0b</text>

    <!-- 桶 1 -->
    <rect x="48" width="42" height="20" fill="#1e5f5f" stroke="#40c0c0"/>
    <text x="69" y="14" fill="#88ffff" font-size="10" text-anchor="middle">[1]</text>
    <text x="69" y="32" fill="#888" font-size="9" text-anchor="middle">24B</text>
    <rect x="51" y="42" width="36" height="14" fill="#1e3a5f" stroke="#4080c0"/>
    <text x="69" y="53" fill="#88c0ff" font-size="9" text-anchor="middle">c1a</text>

    <!-- 桶 2 -->
    <rect x="96" width="42" height="20" fill="#1e5f5f" stroke="#40c0c0"/>
    <text x="117" y="14" fill="#88ffff" font-size="10" text-anchor="middle">[2]</text>
    <text x="117" y="32" fill="#888" font-size="9" text-anchor="middle">32B</text>
    <rect x="99" y="42" width="36" height="14" fill="#1e3a5f" stroke="#4080c0"/>
    <text x="117" y="53" fill="#88c0ff" font-size="9" text-anchor="middle">c2a</text>
    <line x1="117" y1="56" x2="117" y2="62" stroke="#4080c0"/>
    <rect x="99" y="62" width="36" height="14" fill="#1e3a5f" stroke="#4080c0"/>
    <text x="117" y="73" fill="#88c0ff" font-size="9" text-anchor="middle">c2b</text>
    <line x1="117" y1="76" x2="117" y2="82" stroke="#4080c0"/>
    <rect x="99" y="82" width="36" height="14" fill="#1e3a5f" stroke="#4080c0"/>
    <text x="117" y="93" fill="#88c0ff" font-size="9" text-anchor="middle">c2c</text>

    <!-- 桶 3-6 -->
    <rect x="144" width="42" height="20" fill="#1e5f5f" stroke="#40c0c0"/>
    <text x="165" y="14" fill="#88ffff" font-size="10" text-anchor="middle">[3]</text>
    <rect x="192" width="42" height="20" fill="#1e5f5f" stroke="#40c0c0"/>
    <text x="213" y="14" fill="#88ffff" font-size="10" text-anchor="middle">[4]</text>
    <rect x="240" width="42" height="20" fill="#1e5f5f" stroke="#40c0c0"/>
    <text x="261" y="14" fill="#88ffff" font-size="10" text-anchor="middle">[5]</text>
    <rect x="288" width="42" height="20" fill="#1e5f5f" stroke="#40c0c0"/>
    <text x="309" y="14" fill="#88ffff" font-size="10" text-anchor="middle">[6]</text>
    <text x="333" y="14" fill="#888" font-size="11">...</text>

    <!-- 桶 32 -->
    <rect x="370" width="48" height="20" fill="#1e5f5f" stroke="#40c0c0"/>
    <text x="394" y="14" fill="#88ffff" font-size="10" text-anchor="middle">[32]</text>
    <text x="394" y="32" fill="#888" font-size="9" text-anchor="middle">528B</text>
    <text x="425" y="14" fill="#888" font-size="11">...</text>

    <!-- 桶 63 -->
    <rect x="460" width="48" height="20" fill="#1e5f5f" stroke="#40c0c0"/>
    <text x="484" y="14" fill="#88ffff" font-size="10" text-anchor="middle">[63]</text>
    <text x="484" y="32" fill="#888" font-size="9" text-anchor="middle">1032B</text>

    <!-- 旁注 -->
    <text x="540" y="-2" fill="#88ffff" font-size="11" font-weight="bold">每桶最多 7 chunk</text>
    <text x="540" y="14" fill="#888" font-size="10">单链表 LIFO,无锁 push/pop</text>
    <text x="540" y="30" fill="#888" font-size="10">push:e-&gt;next = entries[i]; entries[i] = e</text>
    <text x="540" y="46" fill="#888" font-size="10">pop: e = entries[i]; entries[i] = e-&gt;next</text>
    <text x="540" y="64" fill="#ffaa55" font-size="10">key 字段防 double free(2.30+)</text>
    <text x="540" y="80" fill="#888" font-size="10">每 chunk 物理上仍在 arena heap;</text>
    <text x="540" y="92" fill="#888" font-size="10">tcache 只是一组指针(链表)</text>
  </g>

  <!-- 桶号说明 -->
  <text x="75" y="252" fill="#aaa" font-size="10" font-style="italic">桶 idx 通过 csize2tidx(size) = (size - 16) / 16 算;桶 0 = 16B,桶 1 = 24B,...,桶 63 = 1032B</text>

  <!-- thread T2/Tn tcache 折叠 -->
  <rect x="1175" y="140" width="280" height="120" fill="#0a1413" stroke="#40c0c0" stroke-width="1" stroke-dasharray="4,3"/>
  <text x="1190" y="160" fill="#88ffff" font-size="12" font-weight="bold">thread T2 tcache</text>
  <text x="1190" y="180" fill="#aaa" font-size="11">同 T1 结构</text>
  <text x="1190" y="198" fill="#888" font-size="10">独立 entries[64] + counts[64]</text>
  <text x="1190" y="218" fill="#888" font-size="10">不与 T1 共享 chunk</text>
  <text x="1190" y="240" fill="#aaa" font-size="11" font-style="italic">... thread Tn (per-thread)</text>

  <!-- arena #0 大框 -->
  <rect x="40" y="280" width="1420" height="1350" fill="#0d0e15" stroke="#5a4a8a" stroke-width="1.5" rx="4"/>
  <text x="60" y="306" fill="#c088ff" font-size="14" font-weight="bold">arena #0 — main_arena(主线程,heap 用 brk 扩)</text>

  <!-- ===== Section 1: 头状态机(详细字段) ===== -->
  <rect x="60" y="320" width="1380" height="160" fill="#0d1e15" stroke="#40c060" stroke-width="1.5" rx="3"/>
  <text x="74" y="340" fill="#88ff88" font-size="12" font-weight="bold">「头」状态机(arena 控制面 ── 见 struct malloc_state)</text>

  <g font-size="10">
    <text x="80" y="360" fill="#aaffaa">· mutex</text>
    <text x="200" y="360" fill="#777">arena 锁(pthread_mutex_t,~40 B)</text>
    <text x="80" y="378" fill="#aaffaa">· flags</text>
    <text x="200" y="378" fill="#777">NONCONTIGUOUS_BIT 等(4 B)</text>
    <text x="80" y="396" fill="#aaffaa">· have_fastchunks</text>
    <text x="200" y="396" fill="#777">是否有 fastbin chunk(4 B)</text>
    <text x="80" y="414" fill="#aaffaa">· top</text>
    <text x="200" y="414" fill="#777">→ top_chunk(arena 末端剩饭,8 B)</text>
    <text x="80" y="432" fill="#aaffaa">· last_remainder</text>
    <text x="200" y="432" fill="#777">最近 split 后的余块(8 B)</text>
    <text x="80" y="450" fill="#aaffaa">· binmap[4]</text>
    <text x="200" y="450" fill="#777">位图标记哪些 bin 非空(16 B)</text>

    <text x="780" y="360" fill="#aaffaa">· next</text>
    <text x="900" y="360" fill="#777">→ 下一个 arena(8 B,跨 arena 链表)</text>
    <text x="780" y="378" fill="#aaffaa">· next_free</text>
    <text x="900" y="378" fill="#777">→ 下一个空闲 arena(8 B)</text>
    <text x="780" y="396" fill="#aaffaa">· attached_threads</text>
    <text x="900" y="396" fill="#777">绑定到本 arena 的线程数(8 B)</text>
    <text x="780" y="414" fill="#aaffaa">· system_mem</text>
    <text x="900" y="414" fill="#777">本 arena 向内核要了多少(8 B)</text>
    <text x="780" y="432" fill="#aaffaa">· max_system_mem</text>
    <text x="900" y="432" fill="#777">历史峰值(8 B)</text>
    <text x="780" y="450" fill="#666" font-style="italic">还有 fastbinsY[10] / bins[] —— 见下方两个独立区域</text>
  </g>

  <!-- ===== Section 2: fastbinsY[NFASTBINS=10] 完整二维 ===== -->
  <rect x="60" y="500" width="1380" height="420" fill="#150d1e" stroke="#8040c0" stroke-width="1.5" rx="3"/>
  <text x="74" y="520" fill="#c088ff" font-size="12" font-weight="bold">fastbinsY[NFASTBINS = 10] —— 单链表 LIFO,小块快路径,不合并</text>
  <text x="74" y="538" fill="#777" font-size="10" font-style="italic">第一维(横向)= 桶号;第二维(纵向)= 该桶的空闲 chunk 链(只用 fd 指针)</text>

  <!-- 10 个 fastbin 桶,每桶宽 130 -->
  <!-- 桶 [0] 16B -->
  <g transform="translate(80,554)">
    <rect x="0" y="200" width="120" height="32" fill="#5f3a1e" stroke="#c08040" stroke-width="1.5"/>
    <text x="60" y="214" fill="#ffaa55" font-size="11" font-weight="bold" text-anchor="middle">[0]</text>
    <text x="60" y="228" fill="#ffaa55" font-size="11" text-anchor="middle">16 B</text>
    <text x="60" y="248" fill="#666" font-size="14" text-anchor="middle">↓</text>
    <text x="60" y="268" fill="#555" font-size="11" text-anchor="middle">∅ NULL</text>
  </g>

  <!-- 桶 [1] 24B → chunk_B → chunk2 → NULL -->
  <g transform="translate(214,554)">
    <rect x="0" y="200" width="120" height="32" fill="#5f3a1e" stroke="#c08040" stroke-width="2"/>
    <text x="60" y="214" fill="#ffaa55" font-size="11" font-weight="bold" text-anchor="middle">[1]</text>
    <text x="60" y="228" fill="#ffaa55" font-size="11" text-anchor="middle">24 B</text>
    <text x="60" y="248" fill="#666" font-size="14" text-anchor="middle">↓</text>
    <rect x="20" y="252" width="80" height="22" fill="#5f1e1e" stroke="#c04040"/>
    <text x="60" y="268" fill="#ff8888" font-size="10" text-anchor="middle">chunk_B</text>
    <text x="60" y="286" fill="#666" font-size="14" text-anchor="middle">↓</text>
    <rect x="20" y="290" width="80" height="22" fill="#5f1e1e" stroke="#c04040"/>
    <text x="60" y="306" fill="#ff8888" font-size="10" text-anchor="middle">chunk2</text>
    <text x="60" y="324" fill="#666" font-size="14" text-anchor="middle">↓</text>
    <text x="60" y="342" fill="#555" font-size="11" text-anchor="middle">∅</text>
  </g>

  <!-- 桶 [2] 32B 空 -->
  <g transform="translate(348,554)">
    <rect x="0" y="200" width="120" height="32" fill="#5f3a1e" stroke="#c08040" stroke-width="1.5"/>
    <text x="60" y="214" fill="#ffaa55" font-size="11" font-weight="bold" text-anchor="middle">[2]</text>
    <text x="60" y="228" fill="#ffaa55" font-size="11" text-anchor="middle">32 B</text>
    <text x="60" y="248" fill="#666" font-size="14" text-anchor="middle">↓</text>
    <text x="60" y="268" fill="#555" font-size="11" text-anchor="middle">∅</text>
  </g>

  <!-- 桶 [3] 40B → chunk -->
  <g transform="translate(482,554)">
    <rect x="0" y="200" width="120" height="32" fill="#5f3a1e" stroke="#c08040" stroke-width="1.5"/>
    <text x="60" y="214" fill="#ffaa55" font-size="11" font-weight="bold" text-anchor="middle">[3]</text>
    <text x="60" y="228" fill="#ffaa55" font-size="11" text-anchor="middle">40 B</text>
    <text x="60" y="248" fill="#666" font-size="14" text-anchor="middle">↓</text>
    <rect x="20" y="252" width="80" height="22" fill="#5f1e1e" stroke="#c04040"/>
    <text x="60" y="268" fill="#ff8888" font-size="10" text-anchor="middle">chunk</text>
    <text x="60" y="286" fill="#666" font-size="14" text-anchor="middle">↓</text>
    <text x="60" y="304" fill="#555" font-size="11" text-anchor="middle">∅</text>
  </g>

  <!-- 桶 [4] 48B 空 -->
  <g transform="translate(616,554)">
    <rect x="0" y="200" width="120" height="32" fill="#5f3a1e" stroke="#c08040" stroke-width="1.5"/>
    <text x="60" y="214" fill="#ffaa55" font-size="11" font-weight="bold" text-anchor="middle">[4]</text>
    <text x="60" y="228" fill="#ffaa55" font-size="11" text-anchor="middle">48 B</text>
    <text x="60" y="248" fill="#666" font-size="14" text-anchor="middle">↓</text>
    <text x="60" y="268" fill="#555" font-size="11" text-anchor="middle">∅</text>
  </g>

  <!-- 桶 [5] 56B → chunk -->
  <g transform="translate(750,554)">
    <rect x="0" y="200" width="120" height="32" fill="#5f3a1e" stroke="#c08040" stroke-width="1.5"/>
    <text x="60" y="214" fill="#ffaa55" font-size="11" font-weight="bold" text-anchor="middle">[5]</text>
    <text x="60" y="228" fill="#ffaa55" font-size="11" text-anchor="middle">56 B</text>
    <text x="60" y="248" fill="#666" font-size="14" text-anchor="middle">↓</text>
    <rect x="20" y="252" width="80" height="22" fill="#5f1e1e" stroke="#c04040"/>
    <text x="60" y="268" fill="#ff8888" font-size="10" text-anchor="middle">chunk</text>
    <text x="60" y="286" fill="#666" font-size="14" text-anchor="middle">↓</text>
    <text x="60" y="304" fill="#555" font-size="11" text-anchor="middle">∅</text>
  </g>

  <!-- 桶 [6] 64B 空 -->
  <g transform="translate(884,554)">
    <rect x="0" y="200" width="120" height="32" fill="#5f3a1e" stroke="#c08040" stroke-width="1.5"/>
    <text x="60" y="214" fill="#ffaa55" font-size="11" font-weight="bold" text-anchor="middle">[6]</text>
    <text x="60" y="228" fill="#ffaa55" font-size="11" text-anchor="middle">64 B</text>
    <text x="60" y="248" fill="#666" font-size="14" text-anchor="middle">↓</text>
    <text x="60" y="268" fill="#555" font-size="11" text-anchor="middle">∅</text>
  </g>

  <!-- 桶 [7] 72B 空 -->
  <g transform="translate(1018,554)">
    <rect x="0" y="200" width="120" height="32" fill="#5f3a1e" stroke="#c08040" stroke-width="1.5"/>
    <text x="60" y="214" fill="#ffaa55" font-size="11" font-weight="bold" text-anchor="middle">[7]</text>
    <text x="60" y="228" fill="#ffaa55" font-size="11" text-anchor="middle">72 B</text>
    <text x="60" y="248" fill="#666" font-size="14" text-anchor="middle">↓</text>
    <text x="60" y="268" fill="#555" font-size="11" text-anchor="middle">∅</text>
  </g>

  <!-- 桶 [8] 80B 空 -->
  <g transform="translate(1152,554)">
    <rect x="0" y="200" width="120" height="32" fill="#5f3a1e" stroke="#c08040" stroke-width="1.5"/>
    <text x="60" y="214" fill="#ffaa55" font-size="11" font-weight="bold" text-anchor="middle">[8]</text>
    <text x="60" y="228" fill="#ffaa55" font-size="11" text-anchor="middle">80 B</text>
    <text x="60" y="248" fill="#666" font-size="14" text-anchor="middle">↓</text>
    <text x="60" y="268" fill="#555" font-size="11" text-anchor="middle">∅</text>
  </g>

  <!-- 桶 [9] 88B → chunk -->
  <g transform="translate(1286,554)">
    <rect x="0" y="200" width="120" height="32" fill="#5f3a1e" stroke="#c08040" stroke-width="1.5"/>
    <text x="60" y="214" fill="#ffaa55" font-size="11" font-weight="bold" text-anchor="middle">[9]</text>
    <text x="60" y="228" fill="#ffaa55" font-size="11" text-anchor="middle">88 B</text>
    <text x="60" y="248" fill="#666" font-size="14" text-anchor="middle">↓</text>
    <rect x="20" y="252" width="80" height="22" fill="#5f1e1e" stroke="#c04040"/>
    <text x="60" y="268" fill="#ff8888" font-size="10" text-anchor="middle">chunk</text>
    <text x="60" y="286" fill="#666" font-size="14" text-anchor="middle">↓</text>
    <text x="60" y="304" fill="#555" font-size="11" text-anchor="middle">∅</text>
  </g>

  <!-- fastbin 总结 -->
  <text x="74" y="785" fill="#666" font-size="10" font-style="italic">每桶固定 16 B 步长,大小 = 16 + idx × 16(idx 0~9 → 16~88 B,但 max_fast 默认 64,实际只用前几个);桶内 chunk 大小完全相等</text>

  <!-- ===== Section 3: bins[] 完整二维(分两行展示) ===== -->
  <rect x="60" y="940" width="1380" height="450" fill="#150d1e" stroke="#8040c0" stroke-width="1.5" rx="3"/>
  <text x="74" y="960" fill="#c088ff" font-size="12" font-weight="bold">bins[NBINS*2 - 2 ≈ 254] —— 双链表(fd ⇄ bk),unsorted + smallbin + largebin 共用此数组</text>
  <text x="74" y="978" fill="#777" font-size="10" font-style="italic">每桶占 2 个 mchunkptr 槽(双链表 sentinel 的 fd + bk)</text>

  <!-- 第 1 行:unsorted + smallbin 部分(idx 1~63) -->
  <text x="74" y="1000" fill="#c088ff" font-size="11" font-weight="bold">第 1 段:unsorted bin(idx=1) + smallbins(idx=2~63)</text>

  <!-- unsorted bin → chunk_D -->
  <g transform="translate(80,1010)">
    <rect x="0" y="200" width="130" height="34" fill="#3a1e5f" stroke="#8040c0" stroke-width="2"/>
    <text x="65" y="214" fill="#c088ff" font-size="11" font-weight="bold" text-anchor="middle">[1] unsorted</text>
    <text x="65" y="228" fill="#c088ff" font-size="10" text-anchor="middle">任意大小</text>
    <text x="65" y="250" fill="#666" font-size="14" text-anchor="middle">↓</text>
    <rect x="25" y="254" width="80" height="22" fill="#5f1e1e" stroke="#c04040"/>
    <text x="65" y="269" fill="#ff8888" font-size="10" text-anchor="middle">chunk_D</text>
    <text x="65" y="288" fill="#666" font-size="14" text-anchor="middle">⇄</text>
    <text x="65" y="306" fill="#555" font-size="11" text-anchor="middle">∅</text>
  </g>

  <!-- s[2] 32B 空 -->
  <g transform="translate(220,1010)">
    <rect x="0" y="200" width="100" height="34" fill="#3a1e5f" stroke="#8040c0" stroke-width="1"/>
    <text x="50" y="214" fill="#c088ff" font-size="11" font-weight="bold" text-anchor="middle">s[2]</text>
    <text x="50" y="228" fill="#c088ff" font-size="10" text-anchor="middle">32 B</text>
    <text x="50" y="250" fill="#666" font-size="14" text-anchor="middle">↓</text>
    <text x="50" y="268" fill="#555" font-size="11" text-anchor="middle">∅</text>
  </g>

  <!-- s[3] 48B → chunk -->
  <g transform="translate(330,1010)">
    <rect x="0" y="200" width="100" height="34" fill="#3a1e5f" stroke="#8040c0" stroke-width="1.5"/>
    <text x="50" y="214" fill="#c088ff" font-size="11" font-weight="bold" text-anchor="middle">s[3]</text>
    <text x="50" y="228" fill="#c088ff" font-size="10" text-anchor="middle">48 B</text>
    <text x="50" y="250" fill="#666" font-size="14" text-anchor="middle">↓</text>
    <rect x="10" y="254" width="80" height="22" fill="#5f1e1e" stroke="#c04040"/>
    <text x="50" y="269" fill="#ff8888" font-size="10" text-anchor="middle">chunk</text>
    <text x="50" y="288" fill="#666" font-size="14" text-anchor="middle">⇄</text>
    <rect x="10" y="292" width="80" height="22" fill="#5f1e1e" stroke="#c04040"/>
    <text x="50" y="307" fill="#ff8888" font-size="10" text-anchor="middle">chunk</text>
    <text x="50" y="326" fill="#666" font-size="14" text-anchor="middle">⇄</text>
    <text x="50" y="344" fill="#555" font-size="11" text-anchor="middle">∅</text>
  </g>

  <!-- s[4] 64B 空 -->
  <g transform="translate(440,1010)">
    <rect x="0" y="200" width="100" height="34" fill="#3a1e5f" stroke="#8040c0" stroke-width="1"/>
    <text x="50" y="214" fill="#c088ff" font-size="11" font-weight="bold" text-anchor="middle">s[4]</text>
    <text x="50" y="228" fill="#c088ff" font-size="10" text-anchor="middle">64 B</text>
    <text x="50" y="250" fill="#666" font-size="14" text-anchor="middle">↓</text>
    <text x="50" y="268" fill="#555" font-size="11" text-anchor="middle">∅</text>
  </g>

  <!-- s[5] 80B → chunk_F -->
  <g transform="translate(550,1010)">
    <rect x="0" y="200" width="100" height="34" fill="#3a1e5f" stroke="#8040c0" stroke-width="2"/>
    <text x="50" y="214" fill="#c088ff" font-size="11" font-weight="bold" text-anchor="middle">s[5]</text>
    <text x="50" y="228" fill="#c088ff" font-size="10" text-anchor="middle">80 B</text>
    <text x="50" y="250" fill="#666" font-size="14" text-anchor="middle">↓</text>
    <rect x="10" y="254" width="80" height="22" fill="#5f1e1e" stroke="#c04040"/>
    <text x="50" y="269" fill="#ff8888" font-size="10" text-anchor="middle">chunk_F</text>
    <text x="50" y="288" fill="#666" font-size="14" text-anchor="middle">⇄</text>
    <text x="50" y="306" fill="#555" font-size="11" text-anchor="middle">∅</text>
  </g>

  <!-- s[6] 96B → chunk_H -->
  <g transform="translate(660,1010)">
    <rect x="0" y="200" width="100" height="34" fill="#3a1e5f" stroke="#8040c0" stroke-width="2"/>
    <text x="50" y="214" fill="#c088ff" font-size="11" font-weight="bold" text-anchor="middle">s[6]</text>
    <text x="50" y="228" fill="#c088ff" font-size="10" text-anchor="middle">96 B</text>
    <text x="50" y="250" fill="#666" font-size="14" text-anchor="middle">↓</text>
    <rect x="10" y="254" width="80" height="22" fill="#5f1e1e" stroke="#c04040"/>
    <text x="50" y="269" fill="#ff8888" font-size="10" text-anchor="middle">chunk_H</text>
    <text x="50" y="288" fill="#666" font-size="14" text-anchor="middle">⇄</text>
    <text x="50" y="306" fill="#555" font-size="11" text-anchor="middle">∅</text>
  </g>

  <!-- 省略号 -->
  <text x="790" y="1050" fill="#666" font-size="20">…</text>
  <text x="785" y="1074" fill="#666" font-size="10" font-style="italic">(s[7]~s[62])</text>

  <!-- s[62] 496B 空 -->
  <g transform="translate(840,1010)">
    <rect x="0" y="200" width="100" height="34" fill="#3a1e5f" stroke="#8040c0" stroke-width="1"/>
    <text x="50" y="214" fill="#c088ff" font-size="11" font-weight="bold" text-anchor="middle">s[62]</text>
    <text x="50" y="228" fill="#c088ff" font-size="10" text-anchor="middle">496 B</text>
    <text x="50" y="250" fill="#666" font-size="14" text-anchor="middle">↓</text>
    <text x="50" y="268" fill="#555" font-size="11" text-anchor="middle">∅</text>
  </g>

  <!-- s[63] 504B → chunk -->
  <g transform="translate(950,1010)">
    <rect x="0" y="200" width="100" height="34" fill="#3a1e5f" stroke="#8040c0" stroke-width="1.5"/>
    <text x="50" y="214" fill="#c088ff" font-size="11" font-weight="bold" text-anchor="middle">s[63]</text>
    <text x="50" y="228" fill="#c088ff" font-size="10" text-anchor="middle">504 B</text>
    <text x="50" y="250" fill="#666" font-size="14" text-anchor="middle">↓</text>
    <rect x="10" y="254" width="80" height="22" fill="#5f1e1e" stroke="#c04040"/>
    <text x="50" y="269" fill="#ff8888" font-size="10" text-anchor="middle">chunk</text>
    <text x="50" y="288" fill="#666" font-size="14" text-anchor="middle">⇄</text>
    <text x="50" y="306" fill="#555" font-size="11" text-anchor="middle">∅</text>
  </g>

  <text x="1080" y="1050" fill="#666" font-size="11" font-style="italic">smallbin:固定 16 B 步长,</text>
  <text x="1080" y="1066" fill="#666" font-size="11" font-style="italic">桶内 chunk 大小相等,</text>
  <text x="1080" y="1082" fill="#666" font-size="11" font-style="italic">free 时合并相邻</text>

  <!-- 第 2 行:largebin 部分(idx 64~126) -->
  <text x="74" y="1190" fill="#c088ff" font-size="11" font-weight="bold">第 2 段:largebins(idx=64~126,size class 分桶)</text>

  <!-- l[64] [512,576) → 排序 chunk -->
  <g transform="translate(80,1200)">
    <rect x="0" y="200" width="120" height="34" fill="#3a1e5f" stroke="#8040c0" stroke-width="1.5"/>
    <text x="60" y="214" fill="#c088ff" font-size="11" font-weight="bold" text-anchor="middle">l[64]</text>
    <text x="60" y="228" fill="#c088ff" font-size="10" text-anchor="middle">[512, 576)</text>
    <text x="60" y="250" fill="#666" font-size="14" text-anchor="middle">↓</text>
    <rect x="20" y="254" width="80" height="22" fill="#5f1e1e" stroke="#c04040"/>
    <text x="60" y="269" fill="#ff8888" font-size="10" text-anchor="middle">560 B</text>
    <text x="60" y="288" fill="#666" font-size="14" text-anchor="middle">⇄</text>
    <rect x="20" y="292" width="80" height="22" fill="#5f1e1e" stroke="#c04040"/>
    <text x="60" y="307" fill="#ff8888" font-size="10" text-anchor="middle">528 B</text>
    <text x="60" y="326" fill="#666" font-size="14" text-anchor="middle">⇄</text>
    <text x="60" y="344" fill="#555" font-size="11" text-anchor="middle">∅</text>
    <text x="60" y="362" fill="#888" font-size="9" text-anchor="middle" font-style="italic">(桶内大→小)</text>
  </g>

  <!-- l[65] [576,640) 空 -->
  <g transform="translate(220,1200)">
    <rect x="0" y="200" width="120" height="34" fill="#3a1e5f" stroke="#8040c0" stroke-width="1"/>
    <text x="60" y="214" fill="#c088ff" font-size="11" font-weight="bold" text-anchor="middle">l[65]</text>
    <text x="60" y="228" fill="#c088ff" font-size="10" text-anchor="middle">[576, 640)</text>
    <text x="60" y="250" fill="#666" font-size="14" text-anchor="middle">↓</text>
    <text x="60" y="268" fill="#555" font-size="11" text-anchor="middle">∅</text>
  </g>

  <!-- l[66] [640,704) → 1 chunk -->
  <g transform="translate(360,1200)">
    <rect x="0" y="200" width="120" height="34" fill="#3a1e5f" stroke="#8040c0" stroke-width="1.5"/>
    <text x="60" y="214" fill="#c088ff" font-size="11" font-weight="bold" text-anchor="middle">l[66]</text>
    <text x="60" y="228" fill="#c088ff" font-size="10" text-anchor="middle">[640, 704)</text>
    <text x="60" y="250" fill="#666" font-size="14" text-anchor="middle">↓</text>
    <rect x="20" y="254" width="80" height="22" fill="#5f1e1e" stroke="#c04040"/>
    <text x="60" y="269" fill="#ff8888" font-size="10" text-anchor="middle">680 B</text>
    <text x="60" y="288" fill="#666" font-size="14" text-anchor="middle">⇄</text>
    <text x="60" y="306" fill="#555" font-size="11" text-anchor="middle">∅</text>
  </g>

  <!-- 省略号 -->
  <text x="520" y="1240" fill="#666" font-size="20">…</text>
  <text x="510" y="1264" fill="#666" font-size="10" font-style="italic">(l[67]~l[125])</text>

  <!-- l[126] 大段 -->
  <g transform="translate(580,1200)">
    <rect x="0" y="200" width="140" height="34" fill="#3a1e5f" stroke="#8040c0" stroke-width="1"/>
    <text x="70" y="214" fill="#c088ff" font-size="11" font-weight="bold" text-anchor="middle">l[126]</text>
    <text x="70" y="228" fill="#c088ff" font-size="10" text-anchor="middle">[~MB,∞)</text>
    <text x="70" y="250" fill="#666" font-size="14" text-anchor="middle">↓</text>
    <text x="70" y="268" fill="#555" font-size="11" text-anchor="middle">∅</text>
    <text x="70" y="286" fill="#888" font-size="9" text-anchor="middle" font-style="italic">(更大的走 mmap,</text>
    <text x="70" y="300" fill="#888" font-size="9" text-anchor="middle" font-style="italic">不进 largebin)</text>
  </g>

  <text x="780" y="1220" fill="#666" font-size="11" font-style="italic">largebin:对数 size class</text>
  <text x="780" y="1236" fill="#666" font-size="11" font-style="italic">(每桶覆盖 [2ⁿ, 2ⁿ⁺¹)),</text>
  <text x="780" y="1252" fill="#666" font-size="11" font-style="italic">桶内按大小排序双链表;</text>
  <text x="780" y="1268" fill="#666" font-size="11" font-style="italic">malloc 找时遍历桶内</text>
  <text x="780" y="1284" fill="#666" font-size="11" font-style="italic">直到第一个 ≥ 请求大小(best-fit 近似)</text>

  <!-- bins[] 总结 -->
  <text x="74" y="1330" fill="#888" font-size="10">实际 C 数组下标:bins[0] 不用,bins[1] 是 unsorted,bins[2..63] 是 small,bins[64..126] 是 large。每个槽位 = 2 个 mchunkptr(双链表 fd/bk header)。</text>
  <text x="74" y="1348" fill="#888" font-size="10">原始 NBINS = 128,实际可用 126 个桶,所以 bins[NBINS*2-2] = bins[254] 共 254 个 mchunkptr 指针。</text>
  <text x="74" y="1370" fill="#666" font-size="10" font-style="italic">关键:在用 chunk(被应用持有指针)不出现在任何 bin 链表里 —— bins 上挂的全是 free chunk。</text>

  <!-- ===== Section 4: 在用 chunks + 物理布局(并排) ===== -->
  <!-- 在用 chunks -->
  <rect x="60" y="1410" width="400" height="200" fill="#0d141e" stroke="#4080c0" stroke-width="1.5" rx="3"/>
  <text x="74" y="1430" fill="#88c0ff" font-size="12" font-weight="bold">「在用」chunks(被应用持有指针)</text>
  <g transform="translate(74,1444)">
    <rect x="0" y="200" width="370" height="22" fill="#1e3a5f" stroke="#4080c0"/>
    <text x="6" y="216" fill="#88c0ff" font-size="11">chunk_A (32B)  ← p1 = malloc(24)</text>
    <rect x="0" y="226" width="370" height="22" fill="#1e3a5f" stroke="#4080c0"/>
    <text x="6" y="242" fill="#88c0ff" font-size="11">chunk_C (48B)  ← p2 = malloc(48)</text>
    <rect x="0" y="252" width="370" height="22" fill="#1e3a5f" stroke="#4080c0"/>
    <text x="6" y="268" fill="#88c0ff" font-size="11">chunk_E (16B)  ← p3 = malloc(16)</text>
    <rect x="0" y="278" width="370" height="22" fill="#1e3a5f" stroke="#4080c0"/>
    <text x="6" y="294" fill="#88c0ff" font-size="11">chunk_G (200B) ← p4 = malloc(200)</text>
    <rect x="0" y="304" width="370" height="22" fill="#1e3a5f" stroke="#4080c0"/>
    <text x="6" y="320" fill="#88c0ff" font-size="11">chunk_I (600B) ← p5 = malloc(600)</text>
    <text x="6" y="348" fill="#666" font-size="10" font-style="italic">不挂在任何 bin 链表上</text>
  </g>

  <!-- 物理布局 -->
  <rect x="480" y="1410" width="960" height="200" fill="#0d0d15" stroke="#888" stroke-width="1.5" rx="3"/>
  <text x="494" y="1430" fill="#bbb" font-size="12" font-weight="bold">「物理布局」heap 段(连续字节流,in-use + free 交错)</text>
  <text x="494" y="1446" fill="#666" font-size="10" font-style="italic">同一组 chunk 在 heap 上的实际位置;free chunk 同时挂在上方某条 bin 链表里</text>

  <g transform="translate(494,1460)">
    <rect x="0" y="200" width="80" height="60" fill="#1e3a5f" stroke="#4080c0"/>
    <text x="40" y="220" fill="#88c0ff" font-size="11" font-weight="bold" text-anchor="middle">A</text>
    <text x="40" y="238" fill="#88c0ff" font-size="10" text-anchor="middle">32B</text>
    <text x="40" y="252" fill="#88c0ff" font-size="9" text-anchor="middle">IN</text>

    <rect x="80" y="200" width="80" height="60" fill="#5f1e1e" stroke="#c04040"/>
    <text x="120" y="220" fill="#ff8888" font-size="11" font-weight="bold" text-anchor="middle">B</text>
    <text x="120" y="238" fill="#ff8888" font-size="10" text-anchor="middle">24B</text>
    <text x="120" y="252" fill="#ff8888" font-size="9" text-anchor="middle">FREE</text>

    <rect x="160" y="200" width="80" height="60" fill="#1e3a5f" stroke="#4080c0"/>
    <text x="200" y="220" fill="#88c0ff" font-size="11" font-weight="bold" text-anchor="middle">C</text>
    <text x="200" y="238" fill="#88c0ff" font-size="10" text-anchor="middle">48B</text>
    <text x="200" y="252" fill="#88c0ff" font-size="9" text-anchor="middle">IN</text>

    <rect x="240" y="200" width="80" height="60" fill="#5f1e1e" stroke="#c04040"/>
    <text x="280" y="220" fill="#ff8888" font-size="11" font-weight="bold" text-anchor="middle">D</text>
    <text x="280" y="238" fill="#ff8888" font-size="10" text-anchor="middle">32B</text>
    <text x="280" y="252" fill="#ff8888" font-size="9" text-anchor="middle">FREE</text>

    <rect x="320" y="200" width="80" height="60" fill="#1e3a5f" stroke="#4080c0"/>
    <text x="360" y="220" fill="#88c0ff" font-size="11" font-weight="bold" text-anchor="middle">E</text>
    <text x="360" y="238" fill="#88c0ff" font-size="10" text-anchor="middle">16B</text>
    <text x="360" y="252" fill="#88c0ff" font-size="9" text-anchor="middle">IN</text>

    <rect x="400" y="200" width="80" height="60" fill="#5f1e1e" stroke="#c04040"/>
    <text x="440" y="220" fill="#ff8888" font-size="11" font-weight="bold" text-anchor="middle">F</text>
    <text x="440" y="238" fill="#ff8888" font-size="10" text-anchor="middle">80B</text>
    <text x="440" y="252" fill="#ff8888" font-size="9" text-anchor="middle">FREE</text>

    <rect x="480" y="200" width="80" height="60" fill="#1e3a5f" stroke="#4080c0"/>
    <text x="520" y="220" fill="#88c0ff" font-size="11" font-weight="bold" text-anchor="middle">G</text>
    <text x="520" y="238" fill="#88c0ff" font-size="10" text-anchor="middle">200B</text>
    <text x="520" y="252" fill="#88c0ff" font-size="9" text-anchor="middle">IN</text>

    <rect x="560" y="200" width="80" height="60" fill="#5f1e1e" stroke="#c04040"/>
    <text x="600" y="220" fill="#ff8888" font-size="11" font-weight="bold" text-anchor="middle">H</text>
    <text x="600" y="238" fill="#ff8888" font-size="10" text-anchor="middle">96B</text>
    <text x="600" y="252" fill="#ff8888" font-size="9" text-anchor="middle">FREE</text>

    <rect x="640" y="200" width="80" height="60" fill="#1e3a5f" stroke="#4080c0"/>
    <text x="680" y="220" fill="#88c0ff" font-size="11" font-weight="bold" text-anchor="middle">I</text>
    <text x="680" y="238" fill="#88c0ff" font-size="10" text-anchor="middle">600B</text>
    <text x="680" y="252" fill="#88c0ff" font-size="9" text-anchor="middle">IN</text>

    <rect x="720" y="200" width="220" height="60" fill="#1e5f3a" stroke="#40c060"/>
    <text x="830" y="220" fill="#88ff88" font-size="11" font-weight="bold" text-anchor="middle">top_chunk</text>
    <text x="830" y="238" fill="#88ff88" font-size="10" text-anchor="middle">~ 大段(剩饭)</text>
    <text x="830" y="252" fill="#88ff88" font-size="9" text-anchor="middle">brk 扩张时增大</text>
  </g>

  <text x="494" y="1552" fill="#666" font-size="10" font-style="italic">B/D/F/H 物理上分散,逻辑上分别挂在 fastbinsY[1] / unsorted / s[5] / s[6](见上方 fastbinsY 和 bins[] 区域中相同名字的 chunk)</text>

  <text x="494" y="1572" fill="#666" font-size="10" font-style="italic">↑ 跨视图:同一个 chunk_B 既在物理布局这里,又在 fastbinsY[1] 链表里;同一个 chunk_D 既在物理这里,又在 unsorted bin 里 ……</text>

  <!-- ===== arena #1 折叠 ===== -->
  <rect x="40" y="1650" width="1420" height="60" fill="#0d0e15" stroke="#5a4a8a" stroke-width="1.5" stroke-dasharray="4,2" rx="4"/>
  <text x="60" y="1676" fill="#c088ff" font-size="13" font-weight="bold">arena #1 — thread arena(线程 1,heap 用 mmap 扩区域)</text>
  <text x="800" y="1676" fill="#666" font-size="11" font-style="italic">— 内部结构同 arena #0(头 + fastbinsY + bins[] + 在用 + 物理) —</text>
  <text x="60" y="1696" fill="#666" font-size="10" font-style="italic">  ↑ 单独一把锁,跟 main_arena 完全独立的空闲表;线程 1 的 malloc/free 落在这里,跟主线程的 fastbinsY/bins[] 互不干扰</text>

  <!-- ===== arena #N 折叠 ===== -->
  <rect x="40" y="1720" width="1420" height="60" fill="#0d0e15" stroke="#5a4a8a" stroke-width="1.5" stroke-dasharray="4,2" rx="4"/>
  <text x="60" y="1746" fill="#c088ff" font-size="13" font-weight="bold">arena #N — ...(数量上限 8 × CPU 核数,可调 M_ARENA_MAX)</text>
  <text x="800" y="1746" fill="#666" font-size="11" font-style="italic">— 同上 —</text>
  <text x="60" y="1766" fill="#666" font-size="10" font-style="italic">  ↑ 超过上限:新线程不再开新 arena,改"复用"已有 arena(接受锁竞争换内存稳定)</text>

  <!-- 跨 arena 链表箭头(arena #0 head 的 next 指向 arena #1) -->
  <path d="M 800 250 Q 750 800 700 1330" stroke="#5a4a8a" stroke-width="1" fill="none" stroke-dasharray="3,2" opacity="0.5"/>
  <text x="780" y="1120" fill="#5a4a8a" font-size="10" font-style="italic">arena 间通过 next/next_free</text>
  <text x="780" y="1136" fill="#5a4a8a" font-size="10" font-style="italic">串成全局链表</text>
</svg>
